<?xml version="1.0" encoding="utf-8"?>
            <svg viewBox="0 0 120 120" id="PixelMon_39941" class="pixel-monster" data-monster-id="39941" preserveAspectRatio="xMinYMin meet" version="1.1" xmlns="http://www.w3.org/2000/svg" xmlns:xlink="http://www.w3.org/1999/xlink">
                <rect xmlns="http://www.w3.org/2000/svg" width="100%" height="100%" fill="#00000000" />
<rect xmlns="http://www.w3.org/2000/svg" x="30" y="0" width="10" height="10" fill="#46535E"/>
<rect xmlns="http://www.w3.org/2000/svg" x="80" y="0" width="10" height="10" fill="#46535E"/>
<rect xmlns="http://www.w3.org/2000/svg" x="40" y="10" width="10" height="10" fill="#46535E"/>
<rect xmlns="http://www.w3.org/2000/svg" x="50" y="10" width="10" height="10" fill="#46535E"/>
<rect xmlns="http://www.w3.org/2000/svg" x="60" y="10" width="10" height="10" fill="#46535E"/>
<rect xmlns="http://www.w3.org/2000/svg" x="70" y="10" width="10" height="10" fill="#46535E"/>
<rect xmlns="http://www.w3.org/2000/svg" x="20" y="20" width="10" height="10" fill="#46535E"/>
<rect xmlns="http://www.w3.org/2000/svg" x="50" y="20" width="10" height="10" fill="#46535E"/>
<rect xmlns="http://www.w3.org/2000/svg" x="60" y="20" width="10" height="10" fill="#46535E"/>
<rect xmlns="http://www.w3.org/2000/svg" x="90" y="20" width="10" height="10" fill="#46535E"/>
<rect xmlns="http://www.w3.org/2000/svg" x="30" y="30" width="10" height="10" fill="#46535E"/>
<rect xmlns="http://www.w3.org/2000/svg" x="40" y="30" width="10" height="10" fill="#46535E"/>
<rect xmlns="http://www.w3.org/2000/svg" x="50" y="30" width="10" height="10" fill="#46535E"/>
<rect xmlns="http://www.w3.org/2000/svg" x="60" y="30" width="10" height="10" fill="#46535E"/>
<rect xmlns="http://www.w3.org/2000/svg" x="70" y="30" width="10" height="10" fill="#46535E"/>
<rect xmlns="http://www.w3.org/2000/svg" x="80" y="30" width="10" height="10" fill="#46535E"/>
<rect xmlns="http://www.w3.org/2000/svg" x="40" y="40" width="10" height="10" fill="#46535E"/>
<rect xmlns="http://www.w3.org/2000/svg" x="50" y="40" width="10" height="10" fill="#46535E"/>
<rect xmlns="http://www.w3.org/2000/svg" x="60" y="40" width="10" height="10" fill="#46535E"/>
<rect xmlns="http://www.w3.org/2000/svg" x="70" y="40" width="10" height="10" fill="#46535E"/>
<rect xmlns="http://www.w3.org/2000/svg" x="50" y="50" width="10" height="10" fill="#46535E"/>
<rect xmlns="http://www.w3.org/2000/svg" x="60" y="50" width="10" height="10" fill="#46535E"/>
<rect xmlns="http://www.w3.org/2000/svg" x="20" y="60" width="10" height="10" fill="#46535E"/>
<rect xmlns="http://www.w3.org/2000/svg" x="30" y="60" width="10" height="10" fill="#46535E"/>
<rect xmlns="http://www.w3.org/2000/svg" x="50" y="60" width="10" height="10" fill="#46535E"/>
<rect xmlns="http://www.w3.org/2000/svg" x="60" y="60" width="10" height="10" fill="#46535E"/>
<rect xmlns="http://www.w3.org/2000/svg" x="80" y="60" width="10" height="10" fill="#46535E"/>
<rect xmlns="http://www.w3.org/2000/svg" x="90" y="60" width="10" height="10" fill="#46535E"/>
<rect xmlns="http://www.w3.org/2000/svg" x="20" y="70" width="10" height="10" fill="#46535E"/>
<rect xmlns="http://www.w3.org/2000/svg" x="30" y="70" width="10" height="10" fill="#46535E"/>
<rect xmlns="http://www.w3.org/2000/svg" x="50" y="70" width="10" height="10" fill="#46535E"/>
<rect xmlns="http://www.w3.org/2000/svg" x="60" y="70" width="10" height="10" fill="#46535E"/>
<rect xmlns="http://www.w3.org/2000/svg" x="80" y="70" width="10" height="10" fill="#46535E"/>
<rect xmlns="http://www.w3.org/2000/svg" x="90" y="70" width="10" height="10" fill="#46535E"/>
<rect xmlns="http://www.w3.org/2000/svg" x="0" y="80" width="10" height="10" fill="#46535E"/>
<rect xmlns="http://www.w3.org/2000/svg" x="10" y="80" width="10" height="10" fill="#46535E"/>
<rect xmlns="http://www.w3.org/2000/svg" x="20" y="80" width="10" height="10" fill="#46535E"/>
<rect xmlns="http://www.w3.org/2000/svg" x="30" y="80" width="10" height="10" fill="#46535E"/>
<rect xmlns="http://www.w3.org/2000/svg" x="40" y="80" width="10" height="10" fill="#46535E"/>
<rect xmlns="http://www.w3.org/2000/svg" x="50" y="80" width="10" height="10" fill="#46535E"/>
<rect xmlns="http://www.w3.org/2000/svg" x="60" y="80" width="10" height="10" fill="#46535E"/>
<rect xmlns="http://www.w3.org/2000/svg" x="70" y="80" width="10" height="10" fill="#46535E"/>
<rect xmlns="http://www.w3.org/2000/svg" x="80" y="80" width="10" height="10" fill="#46535E"/>
<rect xmlns="http://www.w3.org/2000/svg" x="90" y="80" width="10" height="10" fill="#46535E"/>
<rect xmlns="http://www.w3.org/2000/svg" x="100" y="80" width="10" height="10" fill="#46535E"/>
<rect xmlns="http://www.w3.org/2000/svg" x="110" y="80" width="10" height="10" fill="#46535E"/>
<rect xmlns="http://www.w3.org/2000/svg" x="0" y="90" width="10" height="10" fill="#46535E"/>
<rect xmlns="http://www.w3.org/2000/svg" x="10" y="90" width="10" height="10" fill="#46535E"/>
<rect xmlns="http://www.w3.org/2000/svg" x="20" y="90" width="10" height="10" fill="#46535E"/>
<rect xmlns="http://www.w3.org/2000/svg" x="30" y="90" width="10" height="10" fill="#46535E"/>
<rect xmlns="http://www.w3.org/2000/svg" x="40" y="90" width="10" height="10" fill="#46535E"/>
<rect xmlns="http://www.w3.org/2000/svg" x="50" y="90" width="10" height="10" fill="#46535E"/>
<rect xmlns="http://www.w3.org/2000/svg" x="60" y="90" width="10" height="10" fill="#46535E"/>
<rect xmlns="http://www.w3.org/2000/svg" x="70" y="90" width="10" height="10" fill="#46535E"/>
<rect xmlns="http://www.w3.org/2000/svg" x="80" y="90" width="10" height="10" fill="#46535E"/>
<rect xmlns="http://www.w3.org/2000/svg" x="90" y="90" width="10" height="10" fill="#46535E"/>
<rect xmlns="http://www.w3.org/2000/svg" x="100" y="90" width="10" height="10" fill="#46535E"/>
<rect xmlns="http://www.w3.org/2000/svg" x="110" y="90" width="10" height="10" fill="#46535E"/>
<rect xmlns="http://www.w3.org/2000/svg" x="0" y="100" width="10" height="10" fill="#46535E"/>
<rect xmlns="http://www.w3.org/2000/svg" x="20" y="100" width="10" height="10" fill="#46535E"/>
<rect xmlns="http://www.w3.org/2000/svg" x="90" y="100" width="10" height="10" fill="#46535E"/>
<rect xmlns="http://www.w3.org/2000/svg" x="110" y="100" width="10" height="10" fill="#46535E"/>
<rect xmlns="http://www.w3.org/2000/svg" x="0" y="110" width="10" height="10" fill="#46535E"/>
<rect xmlns="http://www.w3.org/2000/svg" x="10" y="110" width="10" height="10" fill="#46535E"/>
<rect xmlns="http://www.w3.org/2000/svg" x="20" y="110" width="10" height="10" fill="#46535E"/>
<rect xmlns="http://www.w3.org/2000/svg" x="90" y="110" width="10" height="10" fill="#46535E"/>
<rect xmlns="http://www.w3.org/2000/svg" x="100" y="110" width="10" height="10" fill="#46535E"/>
<rect xmlns="http://www.w3.org/2000/svg" x="110" y="110" width="10" height="10" fill="#46535E"/>
</svg>
